<svg xmlns="http://www.w3.org/2000/svg" viewBox="0 0 34 34"><circle cx="17" cy="17" r="17" fill="var(--accent-btn-color)"/><path d="M7.065 16.926q7.841-3.16 10.457-4.166c4.98-1.916 6.015-2.249 6.69-2.26.148-.002.48.032.694.193a.68.68 0 0 1 .255.45c.024.128.054.422.03.652-.27 2.623-1.437 8.987-2.031 11.924-.252 1.243-.75 1.509-1.23 1.55-1.04.088-1.828-.486-2.836-1.098-1.578-.956-2.533-1.398-4.065-2.332-1.77-1.079-.212-1.583.796-2.553.265-.253 4.776-4.31 4.756-4.431-.007-.045-.14-.482-.245-.568s-.26-.057-.372-.033q-.237.05-7.563 4.623-1.074.682-1.945.665c-.64-.013-1.872-.335-2.787-.61-1.123-.338-1.538-.497-1.46-1.07q.06-.448.856-.936" fill="#fff"/></svg>